<svg xmlns="http://www.w3.org/2000/svg" id="Layer_1" height="512" viewBox="0 0 512 512" width="512"><g><path d="m307.962 267h-25.982c-5.359 0-10.311-2.859-12.99-7.5l-12.99-22.5-12.99 22.5c-2.679 4.641-7.631 7.5-12.99 7.5h-25.981l12.99 22.5c2.679 4.641 2.679 10.359 0 15l-12.99 22.5h25.981c5.359 0 10.311 2.859 12.99 7.5l12.99 22.5 12.99-22.5c2.679-4.641 7.631-7.5 12.99-7.5h25.981l-12.99-22.5c-2.679-4.641-2.679-10.359 0-15z"></path><path d="m442 477c0 19.33 15.67 35 35 35s35-15.67 35-35v-125h-70z"></path><path d="m150 15c0-8.525-7.111-15.389-15.725-14.983-8.068.38-14.275 7.33-14.275 15.407v94.576h-30v-94.576c0-8.077-6.207-15.027-14.275-15.406-8.614-.407-15.725 6.457-15.725 14.982v95h-30v-94.576c0-8.077-6.207-15.027-14.275-15.406-8.614-.407-15.725 6.457-15.725 14.982v127.566c0 25.461 16.069 48.096 40 56.556v277.878c0 19.33 15.67 35 35 35s35-15.67 35-35v-277.878c23.931-8.46 40-31.095 40-56.556z"></path><path d="m382 307v-184.211c-54.341-41.15-137.184-52.817-202-26.954v46.731c0 30.456-15.439 58.372-40 74.812v259.622c0 .34-.021.676-.026 1.015 82.452 56.008 206.529 39.978 272.026-33.095v-95.5c-17.459-6.192-30-22.865-30-42.42zm-35.067 27.5c5.773 10-1.443 22.5-12.99 22.5h-43.302l-21.65 37.5c-5.774 10-20.207 10-25.981 0l-21.65-37.5h-43.302c-11.547 0-18.764-12.5-12.99-22.5l21.65-37.5-21.65-37.5c-5.773-10 1.443-22.5 12.99-22.5h43.302l21.65-37.5c5.774-10 20.207-10 25.981 0l21.65 37.5h43.302c11.547 0 18.764 12.5 12.99 22.5l-21.65 37.5z"></path><path d="m497 0c-46.944 0-85 38.056-85 85v222c0 8.284 6.716 15 15 15h85v-307c0-8.284-6.716-15-15-15z"></path></g></svg>