<svg xmlns="http://www.w3.org/2000/svg" xmlns:svg="http://www.w3.org/2000/svg" id="svg2016" xml:space="preserve" width="682.66669" height="682.66669" viewBox="0 0 682.66669 682.66669"><defs id="defs2020"><clipPath clipPathUnits="userSpaceOnUse" id="clipPath2030"><path d="M 0,512 H 512 V 0 H 0 Z" id="path2028"></path></clipPath></defs><g id="g2022" transform="matrix(1.3333333,0,0,-1.3333333,0,682.66667)"><g id="g2024"><g id="g2026" clip-path="url(#clipPath2030)"><g id="g2032" transform="translate(33.1191,389.7354)"><path d="m 0,0 h -15.354 c -5.669,0 -10.265,-4.596 -10.265,-10.265 v -287.923 c 0,-5.67 4.596,-10.266 10.265,-10.266 h 476.469 c 5.67,0 10.266,4.596 10.266,10.266 v 93.569" style="fill:none;stroke:#000000;stroke-width:15;stroke-linecap:round;stroke-linejoin:round;stroke-miterlimit:10;stroke-dasharray:none;stroke-opacity:1" id="path2034"></path></g><g id="g2036" transform="translate(504.5,220.5112)"><path d="m 0,0 v 158.959 c 0,5.669 -4.596,10.265 -10.266,10.265 h -15.586" style="fill:none;stroke:#000000;stroke-width:15;stroke-linecap:round;stroke-linejoin:round;stroke-miterlimit:10;stroke-dasharray:none;stroke-opacity:1" id="path2038"></path></g><g id="g2040" transform="translate(35.7559,142.1548)"><path d="M 0,0 V -22.974 C 0,-28.644 4.596,-33.24 10.265,-33.24 H 220.244 V 66.028" style="fill:none;stroke:#000000;stroke-width:15;stroke-linecap:round;stroke-linejoin:round;stroke-miterlimit:10;stroke-dasharray:none;stroke-opacity:1" id="path2042"></path></g><g id="g2044" transform="translate(405.9033,108.915)"><path d="m 0,0 h 60.076 c 5.669,0 10.265,4.596 10.265,10.266 V 33.24" style="fill:none;stroke:#000000;stroke-width:15;stroke-linecap:round;stroke-linejoin:round;stroke-miterlimit:10;stroke-dasharray:none;stroke-opacity:1" id="path2046"></path></g><g id="g2048" transform="translate(256,208.1826)"><path d="M 0,0 V -99.268 H 114.508" style="fill:none;stroke:#000000;stroke-width:15;stroke-linecap:round;stroke-linejoin:round;stroke-miterlimit:10;stroke-dasharray:none;stroke-opacity:1" id="path2050"></path></g><g id="g2052" transform="translate(35.7559,242.3779)"><path d="m 0,0 v -100.223 c 0,0 101.193,60.517 220.244,6.945 V 166.208 C 117.715,212.345 28.432,173.863 5.624,162.293 2.172,160.542 0,157.006 0,153.136 V 35.395" style="fill:none;stroke:#000000;stroke-width:15;stroke-linecap:round;stroke-linejoin:round;stroke-miterlimit:10;stroke-dasharray:none;stroke-opacity:1" id="path2054"></path></g><g id="g2056" transform="translate(256,149.0991)"><path d="m 0,0 c 119.051,53.573 220.244,-6.944 220.244,-6.944 v 253.359 c 0,3.87 -2.172,7.406 -5.624,9.157 -22.808,11.57 -112.091,50.052 -214.62,3.914 z" style="fill:none;stroke:#000000;stroke-width:15;stroke-linecap:round;stroke-linejoin:round;stroke-miterlimit:10;stroke-dasharray:none;stroke-opacity:1" id="path2058"></path></g><g id="g2060" transform="translate(366.1221,368.4824)"><path d="m 0,0 21.848,-36.663 42.674,-0.588 -20.827,-37.252 20.827,-37.252 -42.674,-0.59 L 0,-149.007 l -21.848,36.662 -42.674,0.59 20.827,37.252 -20.827,37.252 42.674,0.588 z" style="fill:none;stroke:#000000;stroke-width:15;stroke-linecap:round;stroke-linejoin:round;stroke-miterlimit:10;stroke-dasharray:none;stroke-opacity:1" id="path2062"></path></g><g id="g2064" transform="translate(322.4272,293.979)"><path d="M 0,0 21.847,37.841 H 65.542 L 87.39,0 65.542,-37.841 H 21.847 Z" style="fill:none;stroke:#000000;stroke-width:15;stroke-linecap:round;stroke-linejoin:round;stroke-miterlimit:10;stroke-dasharray:none;stroke-opacity:1" id="path2066"></path></g><g id="g2068" transform="translate(222.9443,234.5435)"><path d="M 0,0 C -60.422,16.576 -113.745,7.87 -147.865,-2.364" style="fill:none;stroke:#000000;stroke-width:15;stroke-linecap:round;stroke-linejoin:round;stroke-miterlimit:10;stroke-dasharray:none;stroke-opacity:1" id="path2070"></path></g><g id="g2072" transform="translate(75.0791,203.2852)"><path d="M 0,0 C 34.121,10.233 87.443,18.939 147.865,2.364" style="fill:none;stroke:#000000;stroke-width:15;stroke-linecap:round;stroke-linejoin:round;stroke-miterlimit:10;stroke-dasharray:none;stroke-opacity:1" id="path2074"></path></g><g id="g2076" transform="translate(75.0791,289.9687)"><path d="M 0,0 C 34.121,10.233 87.443,18.939 147.865,2.364" style="fill:none;stroke:#000000;stroke-width:15;stroke-linecap:round;stroke-linejoin:round;stroke-miterlimit:10;stroke-dasharray:none;stroke-opacity:1" id="path2078"></path></g><g id="g2080" transform="translate(222.9443,321.2266)"><path d="M 0,0 C -60.422,16.576 -113.745,7.87 -147.865,-2.363" style="fill:none;stroke:#000000;stroke-width:15;stroke-linecap:round;stroke-linejoin:round;stroke-miterlimit:10;stroke-dasharray:none;stroke-opacity:1" id="path2082"></path></g><g id="g2084" transform="translate(75.0791,347.7573)"><path d="M 0,0 C 34.121,10.234 87.443,18.939 147.865,2.364" style="fill:none;stroke:#000000;stroke-width:15;stroke-linecap:round;stroke-linejoin:round;stroke-miterlimit:10;stroke-dasharray:none;stroke-opacity:1" id="path2086"></path></g><g id="g2088" transform="translate(222.9443,379.0156)"><path d="M 0,0 C -60.422,16.576 -113.745,7.87 -147.865,-2.364" style="fill:none;stroke:#000000;stroke-width:15;stroke-linecap:round;stroke-linejoin:round;stroke-miterlimit:10;stroke-dasharray:none;stroke-opacity:1" id="path2090"></path></g><g id="g2092" transform="translate(293.3325,204.9595)"><path d="M 0,0 8.939,1.944" style="fill:none;stroke:#000000;stroke-width:15;stroke-linecap:round;stroke-linejoin:round;stroke-miterlimit:10;stroke-dasharray:none;stroke-opacity:1" id="path2094"></path></g></g></g></g></svg>